<svg xmlns="http://www.w3.org/2000/svg" width="239.939" height="229.93" viewBox="0 0 239.939 229.93">
  <g id="Logo2" transform="translate(-1310.227 -730.965)">
    <g id="Group_1020" data-name="Group 1020">
      <path id="Path_2411" data-name="Path 2411" d="M1335.027,898.211h6.523v33.325h-6.523V917.729h-12.378v13.807h-6.569V898.211h6.569v13.235h12.378Z" fill="#8e67ff"/>
      <path id="Path_2412" data-name="Path 2412" d="M1351.023,929.061a10.664,10.664,0,0,1-3.57-8.427V898.211h6.522v21.9c0,3.476,1.953,5.665,6.189,5.665s6.189-2.189,6.189-5.665v-21.9h6.571v22.423a10.663,10.663,0,0,1-3.572,8.427,14.94,14.94,0,0,1-18.329,0Z" fill="#8e67ff"/>
      <path id="Path_2413" data-name="Path 2413" d="M1394.586,932.2a17.329,17.329,0,1,1,12.283-29.611,16.556,16.556,0,0,1,5.046,12.283,17.149,17.149,0,0,1-17.329,17.328Zm0-6.427a10.4,10.4,0,0,0,7.665-3.047,11.517,11.517,0,0,0,0-15.709,11.039,11.039,0,0,0-15.33,0,11.514,11.514,0,0,0,0,15.709A10.4,10.4,0,0,0,1394.586,925.775Z" fill="#8e67ff"/>
      <path id="Path_2414" data-name="Path 2414" d="M1435.814,898.211h6.571v33.325h-5L1423.1,911.16v20.376h-6.569V898.211h5l14.281,20.328Z" fill="#8e67ff"/>
      <path id="Path_2415" data-name="Path 2415" d="M1481.28,913.636v2.57a15.381,15.381,0,0,1-4.57,11.569A16.283,16.283,0,0,1,1464.9,932.2a17.518,17.518,0,0,1-12.807-5,16.712,16.712,0,0,1-5.045-12.283,17.469,17.469,0,0,1,31.992-9.616l-5.618,3.237a10.274,10.274,0,0,0-8.951-4.618,10.516,10.516,0,0,0-7.855,3.141,11.521,11.521,0,0,0,.048,15.663,11.325,11.325,0,0,0,8.284,3.047c5.094,0,8.521-2.38,9.712-6.331H1464.57v-5.808Z" fill="#8e67ff"/>
      <path id="Path_2416" data-name="Path 2416" d="M1499.18,898.211a15.166,15.166,0,0,1,11.426,4.808,17.524,17.524,0,0,1,0,23.709,15.17,15.17,0,0,1-11.426,4.808h-13.234V898.211Zm0,27.041a9.25,9.25,0,0,0,7.046-2.857,10.57,10.57,0,0,0,2.714-7.521,10.377,10.377,0,0,0-2.714-7.475,9.121,9.121,0,0,0-7.046-2.9h-6.665v20.757Z" fill="#8e67ff"/>
      <path id="Path_2417" data-name="Path 2417" d="M1540.125,931.536l-2-6h-13.282l-2,6h-7.094l11.664-33.325h8.14l11.712,33.325Zm-13.188-12.14h9.141l-4.57-13.616Z" fill="#8e67ff"/>
    </g>
    <g id="Group_1021" data-name="Group 1021">
      <path id="Path_2418" data-name="Path 2418" d="M1345.043,960.894a9.833,9.833,0,1,1,7.047-2.879A9.6,9.6,0,0,1,1345.043,960.894Zm0-1.865a7.652,7.652,0,0,0,5.7-2.331,8.247,8.247,0,0,0,0-11.434,8.077,8.077,0,0,0-11.407,0,8.248,8.248,0,0,0,0,11.434A7.65,7.65,0,0,0,1345.043,959.029Z" fill="#fd7f8d"/>
      <path id="Path_2419" data-name="Path 2419" d="M1387.056,941.37h1.92v19.194h-1.645l-10.694-15.629v15.629h-1.919V941.37h1.645L1387.056,957Z" fill="#fd7f8d"/>
      <path id="Path_2420" data-name="Path 2420" d="M1411.74,958.755h8.774v1.809H1409.82V941.37h1.92Z" fill="#fd7f8d"/>
      <path id="Path_2421" data-name="Path 2421" d="M1439.713,941.37h1.92v19.194h-1.92Z" fill="#fd7f8d"/>
      <path id="Path_2422" data-name="Path 2422" d="M1474.814,941.37h1.92v19.194h-1.645L1464.4,944.935v15.629h-1.92V941.37h1.646L1474.814,957Z" fill="#fd7f8d"/>
      <path id="Path_2423" data-name="Path 2423" d="M1499.5,958.755h9.322v1.809h-11.242V941.37h11.1v1.81H1499.5v6.8h8.5v1.81h-8.5Z" fill="#fd7f8d"/>
    </g>
    <g id="Group_1022" data-name="Group 1022">
      <path id="Path_2424" data-name="Path 2424" d="M1386.193,789.17c-.481,2.338-.871,4.675-1.169,7.035-.069.505-7.883,48.926-35.542,79.7a43.471,43.471,0,0,1,4.193-86.737Z" fill="#fd7f8d"/>
      <path id="Path_2425" data-name="Path 2425" d="M1534.825,848.224a72.149,72.149,0,0,1-57.2,27.889H1375.056c23.145-33.87,29.767-74.82,30.111-77,2.979-22.71,14.781-42.9,32.426-55.411a68.186,68.186,0,0,1,39.965-12.741,78.6,78.6,0,0,1,15.995,1.7c26.125,5.477,47.94,26.468,54.311,52.179C1553.478,807.365,1548.712,830.487,1534.825,848.224Z" fill="#8e67ff"/>
    </g>
  </g>
</svg>
